<?xml version="1.0" standalone="no"?>
<!DOCTYPE svg PUBLIC "-//W3C//DTD SVG 20010904//EN"
 "http://www.w3.org/TR/2001/REC-SVG-20010904/DTD/svg10.dtd">
<svg version="1.0" xmlns="http://www.w3.org/2000/svg"
 width="700.000000pt" height="700.000000pt" viewBox="0 0 700.000000 700.000000"
 preserveAspectRatio="xMidYMid meet">
<metadata>
Created by potrace 1.14, written by Peter Selinger 2001-2017
</metadata>
<g transform="translate(0.000000,700.000000) scale(0.100000,-0.100000)"
fill="#000000" stroke="none">
<path d="M2996 6843 c-15 -87 -29 -169 -31 -183 -2 -14 -13 -77 -24 -140 -11
-63 -23 -133 -26 -155 -4 -22 -8 -47 -11 -56 -2 -9 2 -21 9 -28 21 -16 1173
-11 1170 6 -2 6 -18 105 -38 220 -19 114 -37 218 -39 229 -5 25 -16 91 -20
119 -5 30 -17 97 -22 123 l-4 22 -468 0 -468 0 -28 -157z"/>
<path d="M2534 5436 c-13 -36 -181 -527 -210 -611 -22 -67 -30 -103 -23 -110
14 -14 849 -14 850 0 0 5 2 17 4 26 1 8 6 56 9 105 4 50 8 101 11 115 2 13 7
62 10 109 4 47 8 103 10 125 2 22 6 74 10 115 3 41 8 85 10 96 3 12 -1 26 -8
32 -18 15 -667 14 -673 -2z"/>
<path d="M3725 5407 c2 -23 6 -76 9 -117 34 -434 46 -573 53 -580 6 -6 866 -6
891 0 17 5 7 37 -109 355 -70 192 -132 357 -137 366 -10 16 -43 17 -361 17
l-349 0 3 -41z"/>
<path d="M2020 3857 c0 -8 -45 -118 -71 -172 -5 -11 -58 -137 -117 -280 -80
-189 -106 -262 -98 -270 8 -8 502 -11 1773 -11 l1762 0 -14 27 c-8 15 -21 44
-28 65 -14 39 -166 403 -192 459 -7 17 -23 55 -35 85 -12 30 -28 66 -37 80
l-15 26 -1464 0 c-839 0 -1464 -4 -1464 -9z"/>
<path d="M1650 2320 c-4 -3 -55 -75 -113 -160 -58 -85 -168 -247 -245 -360
-94 -137 -136 -207 -129 -212 7 -4 273 -8 593 -8 l581 0 16 60 c10 33 17 61
16 62 0 2 5 17 11 33 7 17 16 44 20 60 4 17 37 127 72 245 82 271 81 267 66
277 -14 8 -875 11 -888 3z"/>
<path d="M4439 2320 c-3 -12 193 -673 212 -712 l12 -28 584 0 c320 0 583 2
583 5 0 3 -84 128 -187 278 -103 149 -214 311 -246 360 -32 48 -64 90 -70 94
-13 8 -886 11 -888 3z"/>
<path d="M676 685 c-229 -215 -673 -657 -673 -670 0 -13 103 -15 876 -15 l876
0 19 48 c11 26 37 84 58 130 21 46 38 85 38 87 0 2 43 102 96 222 53 120 98
223 101 230 2 6 -6 15 -19 19 -13 4 -312 8 -666 8 l-643 1 -63 -60z"/>
<path d="M4924 738 c-4 -6 237 -569 298 -695 l20 -43 874 0 c481 0 874 3 874
7 0 4 -44 49 -97 101 -114 109 -415 402 -555 541 l-98 95 -656 1 c-361 0 -658
-3 -660 -7z"/>
</g>
</svg>
